HIERARCHY
ROOT Hips
{
	OFFSET -14.64140 90.27770 -84.91600
	CHANNELS 6 Xposition Yposition Zposition Zrotation Xrotation Yrotation
	JOINT Spine
	{
		OFFSET 0.00000 13.20850 -1.60436
		CHANNELS 3 Zrotation Xrotation Yrotation
		JOINT Spine1
		{
			OFFSET 0.00000 8.61716 0.00000
			CHANNELS 3 Zrotation Xrotation Yrotation
			JOINT Spine2
			{
				OFFSET 0.00000 8.61717 0.00000
				CHANNELS 3 Zrotation Xrotation Yrotation
				JOINT Spine3
				{
					OFFSET 0.00000 8.61717 0.00000
					CHANNELS 3 Zrotation Xrotation Yrotation
					JOINT Neck
					{
						OFFSET 0.00000 11.07920 1.10792
						CHANNELS 3 Zrotation Xrotation Yrotation
						JOINT Neck1
						{
							OFFSET 0.00000 7.08032 0.00000
							CHANNELS 3 Zrotation Xrotation Yrotation
							JOINT Head
							{
								OFFSET 0.00000 7.08031 0.00000
								CHANNELS 3 Zrotation Xrotation Yrotation
								End site
								{
									OFFSET 0.00000 0.00000 0.00000
								}
							}
						}
					}
					JOINT RightShoulder
					{
						OFFSET -0.01000 7.91373 5.19711
						CHANNELS 3 Zrotation Xrotation Yrotation
						JOINT RightArm
						{
							OFFSET -18.41580 0.00000 0.00000
							CHANNELS 3 Zrotation Xrotation Yrotation
							JOINT RightForeArm
							{
								OFFSET -29.11090 0.00000 0.00000
								CHANNELS 3 Zrotation Xrotation Yrotation
								JOINT RightHand
								{
									OFFSET -24.65040 0.00000 0.00000
									CHANNELS 3 Zrotation Xrotation Yrotation
									JOINT RightHandThumb1
									{
										OFFSET -5.35114 -0.85590 3.97906
										CHANNELS 3 Zrotation Xrotation Yrotation
										JOINT RightHandThumb2
										{
											OFFSET -4.52789 0.00000 0.00000
											CHANNELS 3 Zrotation Xrotation Yrotation
											JOINT RightHandThumb3
											{
												OFFSET -2.46976 0.00000 0.00000
												CHANNELS 3 Zrotation Xrotation Yrotation
												End site
												{
													OFFSET 0.00000 0.00000 0.00000
												}
											}
										}
									}
									JOINT RightHandIndex1
									{
										OFFSET -14.26970 0.00000 2.88139
										CHANNELS 3 Zrotation Xrotation Yrotation
										JOINT RightHandIndex2
										{
											OFFSET -5.48836 0.00000 0.00000
											CHANNELS 3 Zrotation Xrotation Yrotation
											JOINT RightHandIndex3
											{
												OFFSET -3.01859 0.00000 0.00000
												CHANNELS 3 Zrotation Xrotation Yrotation
												End site
												{
													OFFSET 0.00000 0.00000 0.00000
												}
											}
										}
									}
									JOINT RightHandMiddle1
									{
										OFFSET -14.26970 0.00000 -0.09147
										CHANNELS 3 Zrotation Xrotation Yrotation
										JOINT RightHandMiddle2
										{
											OFFSET -6.17441 0.00000 0.00000
											CHANNELS 3 Zrotation Xrotation Yrotation
											JOINT RightHandMiddle3
											{
												OFFSET -3.56743 0.00000 0.00000
												CHANNELS 3 Zrotation Xrotation Yrotation
												End site
												{
													OFFSET 0.00000 0.00000 0.00000
												}
											}
										}
									}
									JOINT RightHandRing1
									{
										OFFSET -12.69180 0.00000 -3.06433
										CHANNELS 3 Zrotation Xrotation Yrotation
										JOINT RightHandRing2
										{
											OFFSET -5.62556 0.00000 0.00000
											CHANNELS 3 Zrotation Xrotation Yrotation
											JOINT RightHandRing3
											{
												OFFSET -3.56744 0.00000 0.00000
												CHANNELS 3 Zrotation Xrotation Yrotation
												End site
												{
													OFFSET 0.00000 0.00000 0.00000
												}
											}
										}
									}
									JOINT RightHandPinky1
									{
										OFFSET -11.11390 0.00000 -6.03719
										CHANNELS 3 Zrotation Xrotation Yrotation
										JOINT RightHandPinky2
										{
											OFFSET -4.52789 0.00000 0.00000
											CHANNELS 3 Zrotation Xrotation Yrotation
											JOINT RightHandPinky3
											{
												OFFSET -2.46976 0.00000 0.00000
												CHANNELS 3 Zrotation Xrotation Yrotation
												End site
												{
													OFFSET 0.00000 0.00000 0.00000
												}
											}
										}
									}
								}
							}
						}
					}
					JOINT LeftShoulder
					{
						OFFSET 0.01000 7.91373 5.19711
						CHANNELS 3 Zrotation Xrotation Yrotation
						JOINT LeftArm
						{
							OFFSET 18.41580 0.00000 0.00000
							CHANNELS 3 Zrotation Xrotation Yrotation
							JOINT LeftForeArm
							{
								OFFSET 29.11090 0.00000 0.00000
								CHANNELS 3 Zrotation Xrotation Yrotation
								JOINT LeftHand
								{
									OFFSET 24.65040 0.00000 0.00000
									CHANNELS 3 Zrotation Xrotation Yrotation
									JOINT LeftHandThumb1
									{
										OFFSET 5.35114 -0.85590 3.97906
										CHANNELS 3 Zrotation Xrotation Yrotation
										JOINT LeftHandThumb2
										{
											OFFSET 4.52789 0.00000 0.00000
											CHANNELS 3 Zrotation Xrotation Yrotation
											JOINT LeftHandThumb3
											{
												OFFSET 2.46977 0.00000 0.00000
												CHANNELS 3 Zrotation Xrotation Yrotation
												End site
												{
													OFFSET 0.00000 0.00000 0.00000
												}
											}
										}
									}
									JOINT LeftHandIndex1
									{
										OFFSET 14.26970 0.00000 2.88139
										CHANNELS 3 Zrotation Xrotation Yrotation
										JOINT LeftHandIndex2
										{
											OFFSET 5.48836 0.00000 0.00000
											CHANNELS 3 Zrotation Xrotation Yrotation
											JOINT LeftHandIndex3
											{
												OFFSET 3.01859 0.00000 0.00000
												CHANNELS 3 Zrotation Xrotation Yrotation
												End site
												{
													OFFSET 0.00000 0.00000 0.00000
												}
											}
										}
									}
									JOINT LeftHandMiddle1
									{
										OFFSET 14.26970 0.00000 -0.09147
										CHANNELS 3 Zrotation Xrotation Yrotation
										JOINT LeftHandMiddle2
										{
											OFFSET 6.17440 0.00000 0.00000
											CHANNELS 3 Zrotation Xrotation Yrotation
											JOINT LeftHandMiddle3
											{
												OFFSET 3.56744 0.00000 0.00000
												CHANNELS 3 Zrotation Xrotation Yrotation
												End site
												{
													OFFSET 0.00000 0.00000 0.00000
												}
											}
										}
									}
									JOINT LeftHandRing1
									{
										OFFSET 12.69180 0.00000 -3.06433
										CHANNELS 3 Zrotation Xrotation Yrotation
										JOINT LeftHandRing2
										{
											OFFSET 5.62556 0.00000 0.00000
											CHANNELS 3 Zrotation Xrotation Yrotation
											JOINT LeftHandRing3
											{
												OFFSET 3.56744 0.00000 0.00000
												CHANNELS 3 Zrotation Xrotation Yrotation
												End site
												{
													OFFSET 0.00000 0.00000 0.00000
												}
											}
										}
									}
									JOINT LeftHandPinky1
									{
										OFFSET 11.11390 0.00000 -6.03719
										CHANNELS 3 Zrotation Xrotation Yrotation
										JOINT LeftHandPinky2
										{
											OFFSET 4.52789 0.00000 0.00000
											CHANNELS 3 Zrotation Xrotation Yrotation
											JOINT LeftHandPinky3
											{
												OFFSET 2.46976 0.00000 0.00000
												CHANNELS 3 Zrotation Xrotation Yrotation
												End site
												{
													OFFSET 0.00000 0.00000 0.00000
												}
											}
										}
									}
								}
							}
						}
					}
					JOINT pCube4
					{
						OFFSET 0.00000 10.91090 1.10792
						CHANNELS 3 Zrotation Xrotation Yrotation
						End site
						{
							OFFSET 0.00000 0.00000 0.00000
						}
					}
				}
			}
		}
	}
	JOINT RightUpLeg
	{
		OFFSET -9.98441 0.00000 0.00000
		CHANNELS 3 Zrotation Xrotation Yrotation
		JOINT RightLeg
		{
			OFFSET 0.00000 -42.11790 0.00000
			CHANNELS 3 Zrotation Xrotation Yrotation
			JOINT RightFoot
			{
				OFFSET 0.00000 -45.00020 -0.00001
				CHANNELS 3 Zrotation Xrotation Yrotation
				JOINT RightForeFoot
				{
					OFFSET 0.00000 -3.74820 0.00000
					CHANNELS 3 Zrotation Xrotation Yrotation
					JOINT RightToeBase
					{
						OFFSET 0.00000 0.06325 14.43120
						CHANNELS 3 Zrotation Xrotation Yrotation
						End site
						{
							OFFSET 0.00000 0.00000 0.00000
						}
					}
				}
			}
		}
	}
	JOINT LeftUpLeg
	{
		OFFSET 9.98441 0.00000 0.00000
		CHANNELS 3 Zrotation Xrotation Yrotation
		JOINT LeftLeg
		{
			OFFSET 0.00000 -42.11800 0.00000
			CHANNELS 3 Zrotation Xrotation Yrotation
			JOINT LeftFoot
			{
				OFFSET 0.00000 -45.00070 0.00000
				CHANNELS 3 Zrotation Xrotation Yrotation
				JOINT LeftForeFoot
				{
					OFFSET 0.00000 -3.74824 0.00000
					CHANNELS 3 Zrotation Xrotation Yrotation
					JOINT LeftToeBase
					{
						OFFSET 0.00000 0.06325 14.43110
						CHANNELS 3 Zrotation Xrotation Yrotation
						End site
						{
							OFFSET 0.00000 0.00000 0.00000
						}
					}
				}
			}
		}
	}
}
MOTION
Frames: 4
Frame Time: 0.050000
0.022771558510723607 0.0002841528232159738 0.01884533257076673 -0.045653607559395744 0.04433855421943455 -0.031068881276002193 -2.3927017096845242 -0.5638528020860274 -0.8228106177421228 -0.9293750318049689 3.6375902943957232 0.3782449532563299 -1.1703728513966916 -2.112817637195657 -0.47071812101891947 -0.2689204399198042 0.2521415009641084 -0.6959494463242281 -0.21643160369188463 13.933488868453864 1.0300244586436833 0.2667208165723956 1.1878136831936692 0.9630767134937344 -0.08624162128395882 -12.843709146746408 0.09470611469027951 -4.723540085283618 1.794706313947548 -15.209565982496963 70.55687380148706 18.57758686972086 10.42695961074653 9.96766251585363 2.95780328936167 104.73047305609464 15.509625547481365 -0.49627560874009546 -4.294317709686401 4.538000428429823 -0.1732838537401411 -1.58944134812469 0.034883546339172226 -0.037790165674934144 -56.199699076315014 -0.04964609156788841 -0.04612334395220365 -56.24708641669165 -38.79295748553053 -0.04285737120828502 0.028869099283328262 0.004929254877955868 -0.031066998070324137 0.005549592136608267 0.03056412478951328 -0.014705909790466608 -0.025576865723889675 -36.69565982372131 -0.03483900332206642 -0.03078714557677217 0.02114854418799356 0.02157246945975059 0.006447856859314312 -0.0018898141112552724 0.03628538797543097 -0.023763720956170045 -19.725033048029804 0.01194927473288681 0.03002049588180249 0.04867778357061535 -0.027256117056160153 -0.046203246255011605 -0.04549048312284487 0.012708590879686623 -0.014728433746108499 24.02660421396718 0.03937481083104756 -0.04395682910690594 28.841425818088535 -0.0067246497918667485 -0.020880942686909303 28.841429235503846 0.01532936536669373 0.01821321504191303 6.963495122532294 1.60740948424171 14.131810560966304 -69.79988183741442 27.21573128411945 -9.981836809790524 -1.8453383091631053 -2.8839753795614977 -103.11008768107241 -10.176888978524662 -7.784341127556334 3.96522435534483 -0.5005878006502423 0.027589337975237667 -8.149757376254454 -0.019353273400792296 0.03427212231056873 44.53356128873484 -0.03188482334703913 -0.03645996064176401 44.54255119363617 12.46232604426881 -0.0010321435543584688 -0.004456010475546356 -0.000867246829597288 0.012342935620739421 0.016957593609178163 -0.01798539975612294 -0.02736251326051048 -0.0036375735681195005 11.096434825810507 0.006674775989042338 -0.009307914669888463 -0.00568926296719235 -0.043605846853359505 -0.03536917911017632 -0.04938425082127032 -0.018817282735842468 0.039104657802738 4.7674034969886865 -0.03299805301515199 -0.016345287976763205 -0.02551414828506894 -0.0053111318587877035 0.0013488261326888328 -0.005749100498327739 0.04071568792336694 -0.04397213713851588 -5.639871563251665 -0.023385400238603502 0.045356629174795944 -6.684088053375563 0.02252218176630522 -0.0038506147542690526 -6.7367783933719405 0.04070467266633095 -0.04392796861777636 0.004335071162359576 -0.03615274718771088 0.04478208078071551 8.0886286383448 3.4961446168188024 -19.172126462293996 -0.03477278023563167 10.361743866191862 0.01973362898364684 -5.6310152289518 -15.62905899391942 3.1995972196292572 0.030035367865497764 -0.023207778237371218 -0.003272607430296152 -0.04687502896613543 4.686632839938787 0.015014271098939337 12.431725950464795 -8.209051774660695 6.901235204609165 0.018551359969786987 46.35897632171636 -0.02534910611442821 -4.287872260354459 -14.768982884881728 -3.881755857739159 0.008956704913984528 0.0258055999822235 -0.036508537468496416 -0.040679421804697115 -10.779975888100022 0.010169799608781884 
-0.030489864947526014 0.02543623590640029 -0.0011389701876078856 -0.0035508345167508774 0.034099767985836776 -0.04730781620339422 -2.3602916420694457 -0.3720171222693094 -0.847116560959388 -0.9727813104516913 3.6275370715514095 0.3953335437190549 -1.1080413945789713 -2.081010269855969 -0.5112035199696006 -0.21886734642892508 0.2551576038413627 -0.6928433465939033 -0.2742453631089013 13.774841782449126 1.084839057782003 0.25592052607460153 1.1579131444231525 1.0292946846837339 -0.11146558724600918 -12.999718735712637 0.10092983844698517 -4.513378729811122 1.6925492652623504 -15.168838737684988 70.61961476177885 19.58683180611808 10.135327806480035 10.182904307626929 2.6778022242354003 104.62893525099253 15.556972439779317 -0.5077297895673999 -4.296543567006126 4.521802819222734 -0.15003493391662429 -1.5710674003339438 0.008000731657582704 -0.03914806507720056 -56.18474888801797 -0.021068990094590227 0.0273052598360707 -56.25228960352971 -38.814312722327514 0.004309979237691688 0.0479644563357542 0.023927963089247217 0.022075089871361128 -0.04299562079775668 -0.02025183684620934 0.0421296570795965 0.0017994561514931143 -36.66698122967571 -0.03719972872408148 -0.025994209525191832 0.008094216287294882 -0.008522777762344943 -0.013110890591935317 0.01317512767779462 -0.0044586040002262 -0.03261287889828346 -19.77025129514375 0.018192047894243404 0.045026172032104475 0.023889162992753427 -0.028879983158532234 -0.019719236849772198 -0.004428984195752692 0.02839761930991068 0.042377229774077776 24.098156736435136 0.01082133336431078 0.028156050838361306 28.873431216192643 -0.003144978585743048 -0.007697711922412719 28.835449245301657 -0.034979101520868715 -0.01595848454837849 6.7421001908703575 1.6044266720206573 14.155777108110513 -69.76700928200219 27.854913021710146 -9.94535438824231 -3.3141306895277842 -2.4085292460207572 -102.18918016664674 -10.798290211546782 -7.862045123173702 4.196031351321596 -0.4818647100606519 0.0678152132798914 -8.079911670802254 0.002130003658866556 0.003986265292264397 44.587649395327624 0.016475570489019417 -0.015519338262872663 44.59669989516961 12.489338264201592 0.04970020912284874 -0.04592446583106147 -0.043360120786642524 0.04629180754675672 -0.028165909899869265 -0.038345615373528395 0.014685710535948525 -0.024717706685554217 11.122099361636021 0.036078413364193304 -0.031870307875973294 -0.032679691033887334 -0.013095920236063168 0.01533528288662357 -0.020688159921782263 -0.00017080189740375934 -0.03723245446559259 4.77464994490785 0.03966062073440543 -0.03701976418968279 -0.03453998458976305 -0.00643392121980728 -0.013381174225516242 -0.026372065279396187 0.009607749133792457 -0.006471070972027853 -5.636136426176662 0.01213605640239004 -0.020164238046658883 -6.750729889848209 -0.0018312420499328142 -0.004477049374380466 -6.691348090883737 0.014792161430493207 -0.018947430289335997 0.02908625238656597 -0.005288662709441204 -0.03769513482163628 8.049050346876651 3.5334146614087723 -19.216002405007803 0.03380962427803433 10.423095825534537 0.027512139814553704 -5.619765734057836 -15.659462683921586 3.167441143049738 0.026253583931597362 -0.002068607206367868 0.0032936023855879384 0.04842857234406091 4.689359076483453 -0.04630334025565472 12.427797162343564 -8.209238387429062 6.876881866405342 0.012765464512248857 46.424842099670805 -0.008593543422176109 -4.354373353550236 -14.721947184330881 -3.8131808778782594 -0.032355713119943036 -0.009138292167454659 -0.025657112920367073 -0.03350296624953162 -10.781115498921618 -0.02793246188158436 
-0.0379131909407219 0.007689562447673579 0.009764698105131385 0.03752631317474083 0.022110545118407588 -0.003109793104673567 -2.2720510108463396 -0.245401848050293 -0.8173100768009682 -0.9758687955156599 3.6554900543779114 0.3611653002606485 -1.1114598102314979 -1.999488489810093 -0.5134703585910403 -0.25201214102563135 0.29499264906435535 -0.7464982892667769 -0.3578378472056407 13.694772669476157 1.1402036085882594 0.17455634864360298 1.0264740162784385 1.0669088763280998 -0.099630005499522 -13.153163387083364 0.11564600340798115 -4.365951242917987 1.7072023254818154 -15.081337859592626 70.73776955169001 19.59939316515176 10.237742564372484 10.994480455450008 2.7186669233310656 104.30310550568171 15.597084493034481 -0.42259978175435553 -4.306081329764694 4.509643344931291 -0.1444705025317762 -1.593142030640226 -0.017643360664801974 0.006682538192478361 -56.22018447645226 0.049506508614642265 0.0231624269896213 -56.1889693670279 -38.7238172995977 -0.03176132129452728 0.020801665511523793 0.0021531014968180257 0.032932420133178 0.016324813645687015 -0.0032252199673988577 -0.03747070320351309 0.010639216814115688 -36.65803639410447 -0.012089463848268867 -0.01757859050356455 -0.01785513226042509 0.0297791117722728 -0.004684204593939246 0.01617594579852578 7.109003307742056e-05 0.038662809282638884 -19.806923110677094 0.0038109991839885837 0.04130945196620268 0.0277062326788158 -0.0010843778646799495 -0.0028274533152835343 0.007387076707472426 -0.03873831503259176 -0.01756146728957052 24.050779992937343 0.04361262580491487 -0.032557156930125127 28.820479928359013 0.0011654979964757783 0.03528005890363995 28.839203396201498 -0.047650000456208486 0.0061577283734457035 6.586089247786448 1.5735808757224818 14.02811899799534 -69.81659206699472 27.956548685845426 -10.008795466178313 -4.960940849630796 -1.8144612968354736 -101.39829260120852 -11.00899655261759 -7.620157606720663 4.277531868244726 -0.45742463815748746 0.08029192388131812 -8.155380251282848 0.03947113908565537 -0.006412403825178921 44.61704816901142 -0.013206955212621179 0.03993194563179805 44.59825773488054 12.415271718660192 -0.014213399917258642 0.00874906029810621 -0.031391990803440684 0.012993433453576873 -0.009110213926801019 -0.04615438454897231 0.0026209531696844333 -0.012752359194991863 11.13124463529474 0.008283060667192988 -0.01210589417296059 -0.03217656446309087 0.038989672904273236 -0.031156457290889936 0.031340087983809356 0.005315129409001217 0.03775957098178333 4.799029595691594 -0.026205585424202982 -0.008906382715172497 0.0421332013177821 -0.010356264208061487 -0.0075067531362656105 0.012440146267023713 -0.016307615234353853 -0.002183363168646488 -5.584260211889128 -0.043467546576092045 -0.006060168855103426 -6.716507508471495 -0.035038882082121775 -0.029771605501014698 -6.716363556532723 -0.04152123440495905 -0.030261904425217173 -0.038679663266777256 0.013135406545935726 0.042603446580846846 8.05982942822281 3.534107553412894 -19.25014445124701 0.03430916668291698 10.410229318734997 0.028350844187015906 -5.643121375814719 -15.641479967388545 3.2400202649093233 0.03444754772470893 0.009489016012961097 -0.018817464641394988 0.025470164206090436 4.649175487200491 -0.011284354129443515 12.463009759008038 -8.228983446441822 6.93169131260989 0.008540885762073765 46.39339801771788 -0.027150375637192484 -4.3655769594163365 -14.698561661595063 -3.819416925468928 0.04086311122015192 -0.017229196556781193 0.04114241971903403 0.003794970638971429 -10.728857124503106 -0.015713638294551555 
-0.03038340409534341 0.02913992141625085 -0.03187515552873888 -0.04055773201568324 0.02974560501459006 0.014678009205688786 -2.2567213648141426 -0.13943639247565737 -0.8609179734337561 -0.9499890703027468 3.664574265442045 0.4256061819187554 -1.1279242215715508 -1.9632979193186755 -0.4676707010201341 -0.19366345998882956 0.24862063380626032 -0.6961600759036694 -0.31000829458118223 13.622291243772848 1.0685342987864284 0.2169527830333198 1.0241747206746994 1.0221218937575354 -0.1250859613771033 -13.248904028822619 0.08192553702895544 -4.229370579916684 1.7050674053221744 -15.06481589740367 70.79075490671302 19.303355207772057 10.274328040706338 12.083651580690285 2.7192411260725153 103.57115622509006 15.505775658315589 -0.43169704503026274 -4.220739085198181 4.550214491346359 -0.13050579121448735 -1.5915588565464645 0.018049607215950284 -0.04969594914690854 -56.22607579393364 -0.032955206515683316 -0.012707645577778696 -56.20636447048048 -38.78478860729526 -0.006574520639083325 0.024716955198459248 -0.04566868429492492 -0.011935500771778051 0.023220822314638734 0.03561681224645869 0.026776740713822866 -0.04078251707050629 -36.68573505098217 -0.00387800785465766 -0.00788779435802934 -0.019947294890187994 -0.006561505814529471 0.046014489904872995 -0.008153225790881707 -0.019312592355252275 0.04763211633671846 -19.78977069049626 0.011468434583020267 -0.009967888556304412 -0.007079055880731758 0.017019237185710027 -0.013893027857743583 -0.04495611470723284 -0.0037885892350416014 0.02327660382649238 24.021885728201482 0.008094207430586553 0.024939832625474317 28.87563999303607 -0.014607353186951147 0.022096777245568733 28.86271040201125 0.0246093899446016 -0.014936422508256157 6.515030593558663 1.486714555589781 13.983438563474428 -69.75532391224895 27.676461090218808 -10.367200713705959 -6.564271896012498 -1.469487835187199 -100.56523691736436 -10.868557272190476 -7.142463182868066 4.112142656049229 -0.4704346464140651 0.09320220209020373 -8.074348973515978 0.04636766916838473 0.01671430241283335 44.546973416427015 -0.03520088449540913 -0.008614754619256945 44.55494719417864 12.438791383384624 0.003400590990758031 0.025793066409072998 -0.02998555662575135 0.03484844893964133 -0.037775135957259336 -0.026903382856475675 -0.03987807098833518 -0.040949383514978836 11.124097245014415 0.04153104849473366 -0.02934858119271237 -0.003150744937829279 0.0001684713197932715 -0.0030969224210634864 -0.022508807765387325 0.020997671681373595 0.03455772622133517 4.795447832100301 0.03419188199665891 0.0199102307165232 0.04683425483722634 -0.04386427989155855 -0.012500548775710761 0.010296118217937036 0.04358880030988713 0.010643398387129617 -5.636234404701503 0.03494844912905163 0.016720762198089496 -6.718375180271335 0.013114147754849561 -0.00299223753553535 -6.7602518463784 -0.008830401439794053 0.003219103257004714 0.047082901956578826 -0.026593378495950264 -0.004738798426793034 8.038877493587346 3.471905221464702 -19.215709724472553 0.0328908261045637 10.417493004393146 -0.012944061515917687 -5.625006280260505 -15.65192921291622 3.1836419010429653 0.029339537955875572 -0.03013226425364553 -0.018168261575001943 -0.01890349226037536 4.681606316787436 0.026147155795902443 12.462270122391143 -8.2295075682276 6.889021633395181 0.017060306460416313 46.42317843437079 0.013440700867404568 -4.306426581521316 -14.729816895981793 -3.809904957504512 0.02380664446913314 0.04911475078505468 -0.009779160525898282 -0.041033098310426716 -10.790328824174305 0.01235337810592018 
